<?xml version="1.0" encoding="UTF-8" standalone="no"?>
<svg
   xmlns:dc="http://purl.org/dc/elements/1.1/"
   xmlns:cc="http://creativecommons.org/ns#"
   xmlns:rdf="http://www.w3.org/1999/02/22-rdf-syntax-ns#"
   xmlns:svg="http://www.w3.org/2000/svg"
   xmlns="http://www.w3.org/2000/svg"
   xmlns:xlink="http://www.w3.org/1999/xlink"
   xmlns:sodipodi="http://sodipodi.sourceforge.net/DTD/sodipodi-0.dtd"
   xmlns:inkscape="http://www.inkscape.org/namespaces/inkscape"
   height="90"
   viewBox="0 0 331.25 315.60003"
   version="1.1"
   id="svg8"
   inkscape:version="1.0 (4035a4fb49, 2020-05-01)"
   sodipodi:docname="logo.3.svg"
   width="265">
  <defs
     id="defs2">
    <inkscape:path-effect
       fuse_tolerance="0"
       hide_knot="false"
       vertical_pattern="false"
       prop_units="false"
       tang_offset="0"
       normal_offset="0"
       spacing="0"
       scale_y_rel="false"
       prop_scale="1"
       copytype="single_stretched"
       pattern="M 0,5 C 0,2.24 2.24,0 5,0 7.76,0 10,2.24 10,5 10,7.76 7.76,10 5,10 2.24,10 0,7.76 0,5 Z"
       lpeversion="1"
       is_visible="true"
       id="path-effect1216"
       effect="skeletal" />
    <inkscape:path-effect
       lpeversion="1"
       is_visible="true"
       id="path-effect1214"
       effect="spiro" />
    <inkscape:path-effect
       fuse_tolerance="0"
       hide_knot="false"
       vertical_pattern="false"
       prop_units="false"
       tang_offset="0"
       normal_offset="0"
       spacing="0"
       scale_y_rel="false"
       prop_scale="1"
       copytype="single_stretched"
       pattern="m 13.682997,10.047686 c 0,-2.8750704 2.333392,-5.2084612 5.208464,-5.2084612 2.875073,0 5.208465,2.3333908 5.208465,5.2084612 0,2.875071 -2.333392,5.208462 -5.208465,5.208462 -2.875072,0 -5.208464,-2.333391 -5.208464,-5.208462 z"
       lpeversion="1"
       is_visible="true"
       id="path-effect1210"
       effect="skeletal" />
    <inkscape:path-effect
       lpeversion="1"
       is_visible="true"
       id="path-effect1208"
       effect="spiro" />
    <linearGradient
       inkscape:collect="always"
       id="linearGradient3938">
      <stop
         style="stop-color:#41464c;stop-opacity:1;"
         offset="0"
         id="stop3940" />
      <stop
         style="stop-color:#41464c;stop-opacity:0;"
         offset="1"
         id="stop3942" />
    </linearGradient>
    <linearGradient
       inkscape:collect="always"
       xlink:href="#linearGradient3938"
       id="linearGradient3944"
       x1="-318.06839"
       y1="560.45215"
       x2="267.46042"
       y2="560.45215"
       gradientUnits="userSpaceOnUse"
       gradientTransform="translate(-18.21889,4.0486421)" />
    <inkscape:path-effect
       effect="skeletal"
       id="path-effect837"
       is_visible="true"
       lpeversion="1"
       pattern="M 0,5 C 0,2.24 2.24,0 5,0 7.76,0 10,2.24 10,5 10,7.76 7.76,10 5,10 2.24,10 0,7.76 0,5 Z"
       copytype="single_stretched"
       prop_scale="1"
       scale_y_rel="false"
       spacing="0"
       normal_offset="0"
       tang_offset="0"
       prop_units="false"
       vertical_pattern="false"
       hide_knot="false"
       fuse_tolerance="0" />
    <inkscape:path-effect
       effect="spiro"
       id="path-effect835"
       is_visible="true"
       lpeversion="1" />
  </defs>
  <sodipodi:namedview
     id="base"
     pagecolor="#ffffff"
     bordercolor="#666666"
     borderopacity="1.0"
     inkscape:pageopacity="0.0"
     inkscape:pageshadow="2"
     inkscape:zoom="2.828427"
     inkscape:cx="119.59272"
     inkscape:cy="15.804257"
     inkscape:document-units="mm"
     inkscape:current-layer="layer1"
     inkscape:document-rotation="0"
     showgrid="true"
     showguides="true"
     inkscape:guide-bbox="true"
     inkscape:snap-text-baseline="false"
     inkscape:window-width="1680"
     inkscape:window-height="986"
     inkscape:window-x="0"
     inkscape:window-y="0"
     inkscape:window-maximized="1"
     fit-margin-top="0"
     fit-margin-left="0"
     fit-margin-right="0"
     fit-margin-bottom="0">
    <inkscape:grid
       id="grid1109"
       type="xygrid"
       originx="-17.197001"
       originy="-118.92677" />
  </sodipodi:namedview>
  <metadata
     id="metadata5">
    <rdf:RDF>
      <cc:Work
         rdf:about="">
        <dc:format>image/svg+xml</dc:format>
        <dc:type
           rdf:resource="http://purl.org/dc/dcmitype/StillImage" />
        <dc:title />
      </cc:Work>
    </rdf:RDF>
  </metadata>
  <g
     inkscape:label="Ebene 1"
     inkscape:groupmode="layer"
     id="layer1"
     transform="translate(-36.18249,-118.92677)">
    <path
       style="color:#000000;font-style:normal;font-variant:normal;font-weight:normal;font-stretch:normal;font-size:medium;line-height:normal;font-family:sans-serif;font-variant-ligatures:normal;font-variant-position:normal;font-variant-caps:normal;font-variant-numeric:normal;font-variant-alternates:normal;font-variant-east-asian:normal;font-feature-settings:normal;font-variation-settings:normal;text-indent:0;text-align:start;text-decoration:none;text-decoration-line:none;text-decoration-style:solid;text-decoration-color:#000000;letter-spacing:normal;word-spacing:normal;text-transform:none;writing-mode:lr-tb;direction:ltr;text-orientation:mixed;dominant-baseline:auto;baseline-shift:baseline;text-anchor:start;white-space:normal;shape-padding:0;shape-margin:0;inline-size:0;clip-rule:nonzero;display:inline;overflow:visible;visibility:visible;opacity:1;isolation:auto;mix-blend-mode:normal;color-interpolation:sRGB;color-interpolation-filters:linearRGB;solid-color:#000000;solid-opacity:1;vector-effect:none;fill:#000000;fill-opacity:1;fill-rule:nonzero;stroke:#000000;stroke-width:4.67391;stroke-linecap:butt;stroke-linejoin:round;stroke-miterlimit:4;stroke-dasharray:none;stroke-dashoffset:0;stroke-opacity:1;color-rendering:auto;image-rendering:auto;shape-rendering:auto;text-rendering:auto;enable-background:accumulate;stop-color:#000000;stop-opacity:1"
       d="m 269.81442,127.27817 a 2.3405782,2.3337921 0 0 0 -1.94723,1.12577 c -18.33517,30.20105 -46.92739,59.94321 -71.04453,90.09038 -24.11711,30.14713 -43.92028,60.81228 -43.92028,93.32638 0,64.3837 52.39602,116.62781 116.96689,116.62781 64.5709,0 116.96465,-52.24411 116.96465,-116.62781 0,-32.53517 -20.24,-63.19477 -44.56711,-93.33547 -24.32713,-30.14076 -52.90626,-59.8794 -70.3703,-90.04027 a 2.3405782,2.3337921 0 0 0 -2.08209,-1.16679 z m 0.0172,6.69303 c 17.98677,29.7728 45.47882,58.55963 68.78875,87.44009 24.14469,29.91467 43.53405,59.82204 43.53405,90.40941 0,61.86142 -50.2427,111.96069 -112.28397,111.96069 -62.04124,0 -112.28618,-50.09927 -112.28618,-111.96069 0,-30.60845 18.97266,-60.50801 42.89868,-90.41623 23.10862,-28.88656 50.60351,-57.68336 69.34866,-87.43327 z"
       id="path860" />
    <path
       style="stroke-width:1.02618"
       d="m 204.55919,270.92296 c -3.05798,0 -5.09665,3.22841 -8.15464,3.22841 -3.058,0 -5.09667,-3.22841 -8.15467,-3.22841 -3.05799,0 -5.09661,3.22841 -8.15465,3.22841 -3.058,0 -5.09663,-3.22841 -8.15465,-3.22841 -3.05801,0 -5.09663,3.22841 -8.15464,3.22841 v 9.68532 c 3.05801,0 5.09663,-3.2284 8.15464,-3.2284 3.05802,0 5.09665,3.2284 8.15465,3.2284 3.05804,0 5.09666,-3.2284 8.15465,-3.2284 3.058,0 5.09667,3.2284 8.15467,3.2284 3.05799,0 5.09666,-3.2284 8.15464,-3.2284 3.05801,0 5.09664,3.2284 8.15466,3.2284 3.05797,0 5.09663,-3.2284 8.15459,-3.2284 3.05805,0 5.09671,3.2284 8.15469,3.2284 3.05798,0 5.09666,-3.2284 8.15466,-3.2284 v -9.68533 c -3.058,0 -5.09668,3.22841 -8.15466,3.22841 -3.05798,0 -5.09664,-3.22841 -8.15469,-3.22841 -3.05796,0 -5.09662,3.22841 -8.15459,3.22841 -3.05802,0 -5.09665,-3.22841 -8.15466,-3.22841 z"
       id="path2106-1" />
    <g
       inkscape:label="Layer 1"
       id="layer1-5-0-1"
       transform="matrix(0.32314149,-0.06434659,0.06453368,0.32220455,463.08973,248.89853)">
      <path
         style="fill:#000000;fill-opacity:1;stroke:#000000;stroke-width:0;stroke-linecap:butt;stroke-linejoin:miter;stroke-miterlimit:4;stroke-dasharray:none;stroke-opacity:1"
         d="m -781.28775,63.393622 9.42423,-3.84521 12.60606,-1.93939 17.45455,-7.75758 24.24242,-8.72727 13.57576,-4.84849 h 28.12121 l 32.9697,4.84849 32.00001,13.57575 29.09091,23.27273 5.81818,29.090908 -3.87879,20.36364 7.75758,12.60606 10.66666,2.90909 11.63637,0.9697 6.78788,14.54545 -6.78788,16.48485 -7.75758,16.48485 -13.57576,7.75758 -5.81818,-6.78788 -6.78788,-6.78788 -8.72727,-3.87879 c 0,0 -4.84848,15.51515 -11.63636,18.42424 -6.78788,2.90909 -33.93941,29.09091 -33.93941,29.09091 l -36.84848,4.84849 -16.48485,-2.90909 -18.42424,-13.57576 -7.75758,-9.69697 -14.54545,-9.69697 -8.72728,-8.72727 -11.63636,-4.84849 -8.72727,-13.57576 -4.84849,-12.60606 -2.90909,-24.24242 -3.87879,-23.27273 -6.78787,-14.545448 -4.84849,-15.51515 -1.60359,-11.77069 z"
         id="path2996-6-2"
         inkscape:connector-curvature="0"
         sodipodi:nodetypes="ccccccccccccccccccccccscccccccccccccccc" />
      <path
         style="fill:#000000;fill-opacity:1;stroke:#000000;stroke-width:0;stroke-linecap:butt;stroke-linejoin:miter;stroke-miterlimit:4;stroke-dasharray:none;stroke-opacity:1"
         d="m -657.71603,39.322802 c 8.72727,-0.9697 32.27675,-1.10773 32.27675,-1.10773 l 32.96971,8.72728 c 0,0 19.39394,-1.9394 30.06061,-1.9394 10.66666,0 52.36363,-7.75757 52.36363,-7.75757 l 51.39394,-5.81818 h 24.24243 l -12.60606,9.69697 -34.9091,6.78787 -20.36363,8.72728 -18.42424,19.39394 -11.63637,30.060608 -21.33333,21.33333 -24.6572,0.27745 3.32387,-21.61078 -4.84849,-25.212118 -18.14679,-16.62358 -17.732,-12.46734 -24.24243,-8.72727 z"
         id="path2998-1-9"
         inkscape:connector-curvature="0"
         sodipodi:nodetypes="cccscccccccccccccccc" />
      <path
         style="fill:#000000;fill-opacity:1;stroke:#979796;stroke-width:0.005;stroke-linecap:butt;stroke-linejoin:miter;stroke-miterlimit:4;stroke-dasharray:none;stroke-opacity:1"
         d="m -549.13538,142.53304 32.30217,-10.25735 19.39394,-3.87879 h 16.48485 l 17.45455,1.93939 -5.81818,12.60606 -4.84849,17.45455 -17.45454,32 -21.33334,35.87879 -12.60606,20.36363 c 0,0 -8.72727,6.78788 -8.72727,10.66667 0,3.87879 -0.9697,6.78788 -0.9697,6.78788 0,0 -8.72727,-6.78788 -10.66667,-10.66667 -1.93939,-3.87879 -8.72727,-13.57576 -8.72727,-13.57576 l -10.66666,-18.42424 -5.81819,-18.42424 v -4.84849 l 15.0619,-14.69653 6.65877,-15.10586 6.40055,-13.83397 z"
         id="path3000-5-3"
         inkscape:connector-curvature="0"
         sodipodi:nodetypes="ccccccccccscscccccccc" />
      <path
         style="fill:#000000;fill-opacity:1;stroke:#393b39;stroke-width:0.5;stroke-linecap:butt;stroke-linejoin:miter;stroke-miterlimit:4;stroke-dasharray:none;stroke-opacity:1"
         d="m -753.43928,185.60902 12.60606,4.84848 c 0,0 5.50512,8.14144 6.82737,13.71442 2.50278,10.5487 3.3563,21.44168 5.81818,32 3.20612,13.75016 4.98813,28.27146 11.63636,40.72727 5.18378,9.71207 13.65475,17.3232 21.33334,25.21213 14.21058,14.59983 28.75208,29.23556 45.57576,40.72727 21.24729,14.51334 66.86961,37.67952 66.86961,37.67952 0,0 -43.67353,-19.71793 -63.96052,-32.83104 -23.46836,-15.16949 -44.9271,-33.98538 -63.03031,-55.27272 -9.87743,-11.61475 -17.49159,-25.11703 -24.24242,-38.78788 -7.33677,-14.85742 -14.49802,-30.24116 -17.45455,-46.54546 -1.44182,-7.95114 -1.97888,-21.47199 -1.97888,-21.47199 z"
         id="path3002-94-9"
         inkscape:connector-curvature="0"
         sodipodi:nodetypes="ccssssscssssc" />
      <path
         style="fill:#000000;fill-opacity:1;stroke:#000000;stroke-width:0;stroke-linecap:butt;stroke-linejoin:miter;stroke-miterlimit:4;stroke-dasharray:none;stroke-opacity:1"
         d="m -689.43928,231.18478 15.51515,37.81818 11.63637,32 14.54545,26.18182 13.57576,26.18181 22.30304,25.21213 21.33333,13.57575 -24.24242,-31.0303 -1.93939,-23.27273 4.84848,-33.93939 11.63636,-34.90909 10.66667,-26.18182 3.87879,-27.15152 -5.81818,-27.15151 -3.87879,-4.84849 -25.6255,30.19794 -12.46945,12.05325 -28.5367,6.64985 z"
         id="path3004-9-0"
         inkscape:connector-curvature="0"
         sodipodi:nodetypes="ccccccccccccccccccc" />
      <path
         style="fill:#fffcff;fill-opacity:1;stroke:#000000;stroke-width:0.005;stroke-linecap:butt;stroke-linejoin:miter;stroke-miterlimit:4;stroke-dasharray:none;stroke-opacity:1"
         d="m -639.98473,47.912042 -18.42424,27.15152 -10.68195,30.179488 -23.25745,48.36597 -2.90909,26.18182 -5.81818,23.27272 2.90909,6.78788 6.78788,-1.93939 8.72727,-37.81818 15.51515,-30.06061 10.66667,-27.15151 10.66667,-25.212128 11.63636,-23.27272 6.78788,-14.54546 z"
         id="path3006-0-8"
         inkscape:connector-curvature="0"
         sodipodi:nodetypes="ccccccccccccccc" />
      <path
         style="fill:#fffcff;fill-opacity:1;stroke:#000000;stroke-width:0.005;stroke-linecap:butt;stroke-linejoin:miter;stroke-miterlimit:4;stroke-dasharray:none;stroke-opacity:1"
         d="m -619.62108,145.85144 -26.18183,53.33334 -0.9697,23.27272 -12.60606,9.69697 -4.84849,32 v 22.30303 l 5.81819,17.45455 17.45454,33.93939 24.24244,35.87879 9.69697,3.87879 c 0,0 -0.9697,-9.69697 -4.84849,-9.69697 -3.87879,0 -1.93939,-16.48485 -1.93939,-16.48485 l -5.81818,-18.42424 -15.51517,-29.09091 -11.63636,-37.81818 0.9697,-37.81818 19.39394,-19.39394 17.45455,-25.21213 17.45455,-37.81818 8.72727,-32 3.87879,-23.272718 7.75757,-15.51516 27.15152,-13.57575 22.30303,-5.81819 35.87879,-4.84848 38.78788,-10.66667 8.72727,-6.78788 h -9.69697 l -48.48485,9.69697 -32,7.75758 -32,3.87878 -18.42424,6.78789 -9.69697,7.75757 -2.90909,16.48485 -12.60606,29.090908 -11.63637,19.39394 z"
         id="path3008-9-8"
         inkscape:connector-curvature="0" />
      <path
         d="m -497.45455,130.66521 a 11.636364,12.121212 0 0 1 -11.63636,12.12121 11.636364,12.121212 0 0 1 -11.63637,-12.12121 11.636364,12.121212 0 0 1 11.63637,-12.12122 11.636364,12.121212 0 0 1 11.63636,12.12122"
         transform="translate(-231.99697,-43.049458)"
         style="fill:#fffcff;fill-opacity:1;stroke:#adadaa;stroke-width:0.005;stroke-linecap:round;stroke-linejoin:round;stroke-miterlimit:4;stroke-dasharray:none;stroke-dashoffset:0;stroke-opacity:1"
         id="path3010-1-5" />
      <path
         style="fill:#fffcff;fill-opacity:1;stroke:#000000;stroke-width:0.005;stroke-linecap:butt;stroke-linejoin:miter;stroke-miterlimit:4;stroke-dasharray:none;stroke-opacity:1"
         d="m -760.27688,167.45828 -10.94017,-31.7265 4.37606,-20.78632 12.03419,-19.692308 10.94017,5.470088 -5.47008,12.03419 -5.47009,15.31623 -5.47008,19.69231 z"
         id="path3788-7-0"
         inkscape:connector-curvature="0" />
      <path
         style="fill:#fffcff;fill-opacity:1;stroke:#000000;stroke-width:0.005;stroke-linecap:butt;stroke-linejoin:miter;stroke-miterlimit:4;stroke-dasharray:none;stroke-opacity:1"
         d="m -725.7853,53.361932 15.31624,-6.56411 h 15.31624 l 1.09402,7.65812 -13.12821,14.22224 v 10.94017 l -5.47009,5.47008 -15.31623,4.37607 -3.28206,-9.84615 -3.28205,-9.84616 4.37607,-8.75213 z"
         id="path3790-7-9"
         inkscape:connector-curvature="0" />
      <path
         d="m -503.11466,129.86632 a 6.7313132,6.5783286 0 0 1 -6.73132,6.57833 6.7313132,6.5783286 0 0 1 -6.73131,-6.57833 6.7313132,6.5783286 0 0 1 6.73131,-6.57833 6.7313132,6.5783286 0 0 1 6.73132,6.57833"
         transform="translate(-230.77261,-42.510738)"
         style="fill:#000000;fill-opacity:1;stroke:#313031;stroke-width:0.005;stroke-linecap:round;stroke-linejoin:round;stroke-miterlimit:4;stroke-dasharray:none;stroke-dashoffset:0;stroke-opacity:1"
         id="path3792-11-6" />
      <path
         style="fill:none;stroke:#000000;stroke-width:0.005;stroke-linecap:butt;stroke-linejoin:miter;stroke-miterlimit:4;stroke-dasharray:none;stroke-opacity:1"
         d="M -779.03911,67.243532 Z"
         id="path3794-5-3"
         inkscape:connector-curvature="0" />
      <path
         style="fill:#f7f4f7;fill-opacity:1;stroke:none"
         d="m -786.07413,69.039222 7.37151,3.60018 3.19927,1.29065 1.13471,0.0692 c 0,0 0.11748,-1.59169 -0.81821,-2.87119 -1.69442,-2.31711 -2.0675,-3.37197 -3.27885,-5.84874 -0.49327,-1.00855 -0.41776,-3.34214 -0.41776,-3.34214 l -3.47646,2.05526 z"
         id="path3798-9-8"
         inkscape:connector-curvature="0"
         sodipodi:nodetypes="ccccssccc" />
      <path
         style="fill:#fffcff;fill-opacity:1;stroke:#adadaa;stroke-width:0;stroke-linecap:butt;stroke-linejoin:miter;stroke-miterlimit:4;stroke-dasharray:none;stroke-opacity:1"
         d="m -559.97333,144.23735 -1.67107,16.7107 -5.0132,12.53302 -5.84875,10.86195 -5.01321,5.84875 6.68428,8.77311 12.95079,-10.44418 10.86195,-24.23051 c 0,0 5.01321,-4.17768 2.50661,-9.19089 -2.50661,-5.01321 -4.59544,-10.86195 -4.59544,-10.86195 l -2.08884,-0.41777 z"
         id="path3800-7-5"
         inkscape:connector-curvature="0" />
      <path
         style="fill:#000000;fill-opacity:1;stroke:#000000;stroke-width:0;stroke-linecap:butt;stroke-linejoin:miter;stroke-miterlimit:4;stroke-dasharray:none;stroke-opacity:1"
         d="m -740.75546,80.659942 c -0.54601,0.54067 0.31459,2.25935 0.45759,2.25935 0.14299,0 2.00195,1.45856 2.03055,1.57296 0.0286,0.1144 0.3134,1.44148 0.31459,2.17355 0.002,0.95317 -0.13321,1.91637 -0.40039,2.83133 -0.1997,0.68387 -0.53012,1.3279 -0.88658,1.94475 -0.28722,0.49703 -0.78356,0.87009 -1.00097,1.40137 -0.0695,0.16971 -0.0858,0.54338 -0.0858,0.54338 0,0 0.003,0.61536 0.22879,0.74359 0.56272,0.32013 1.2933,-0.2007 1.88756,-0.45759 0.99267,-0.42912 1.97293,-0.98831 2.71693,-1.77316 0.71994,-0.75947 1.29602,-1.70777 1.57296,-2.71693 0.23212,-0.84583 0.17655,-1.76661 0.0286,-2.63114 -0.12667,-0.74018 -0.43549,-1.44512 -0.77218,-2.11635 -0.29637,-0.59086 -0.62123,-1.18948 -1.08677,-1.65876 -0.6536,-0.65885 -1.46134,-1.18397 -2.31655,-1.54436 -0.84427,-0.35578 -2.03733,-1.21663 -2.68833,-0.57199 z"
         id="path3810-7-6"
         inkscape:connector-curvature="0"
         sodipodi:nodetypes="ssssssscsssssssss" />
    </g>
    <text
       xml:space="preserve"
       style="font-style:normal;font-weight:normal;font-size:10.5833px;line-height:1.25;font-family:sans-serif;fill:#000000;fill-opacity:1;stroke:none;stroke-width:0.264584"
       x="106.25557"
       y="117.37528"
       id="text961"><tspan
         sodipodi:role="line"
         id="tspan959"
         x="106.25557"
         y="117.37528"
         style="stroke-width:0.264584" /></text>
    <text
       xml:space="preserve"
       style="font-style:normal;font-variant:normal;font-weight:600;font-stretch:normal;font-size:112.373px;line-height:1.25;font-family:FreeSans;-inkscape-font-specification:'FreeSans, Semi-Bold';font-variant-ligatures:normal;font-variant-caps:normal;font-variant-numeric:normal;font-variant-east-asian:normal;fill:#000000;fill-opacity:1;stroke:none;stroke-width:0.264962"
       x="-219.40305"
       y="242.34123"
       id="text967"
       transform="scale(1.0014528,0.9985493)"><tspan
         sodipodi:role="line"
         id="tspan975"
         x="-219.40305"
         y="242.34123"
         style="font-style:normal;font-variant:normal;font-weight:600;font-stretch:normal;font-size:112.373px;font-family:FreeSans;-inkscape-font-specification:'FreeSans, Semi-Bold';font-variant-ligatures:normal;font-variant-caps:normal;font-variant-numeric:normal;font-variant-east-asian:normal;stroke-width:0.264962">stekat</tspan></text>
    <text
       xml:space="preserve"
       style="font-style:normal;font-variant:normal;font-weight:600;font-stretch:normal;font-size:112.373px;line-height:1.25;font-family:FreeSans;-inkscape-font-specification:'FreeSans, Semi-Bold';font-variant-ligatures:normal;font-variant-caps:normal;font-variant-numeric:normal;font-variant-east-asian:normal;fill:#000000;fill-opacity:1;stroke:none;stroke-width:0.264962"
       x="-261.9483"
       y="360.77795"
       id="text973"
       transform="scale(1.0014528,0.9985493)"><tspan
         sodipodi:role="line"
         id="tspan971"
         x="-261.9483"
         y="360.77795"
         style="font-style:normal;font-variant:normal;font-weight:600;font-stretch:normal;font-size:112.373px;font-family:FreeSans;-inkscape-font-specification:'FreeSans, Semi-Bold';font-variant-ligatures:normal;font-variant-caps:normal;font-variant-numeric:normal;font-variant-east-asian:normal;stroke-width:0.264962">AQUAP</tspan></text>
    <ellipse
       style="fill:none;fill-opacity:1;stroke:#000000;stroke-width:0.829827;stroke-linejoin:round;stroke-miterlimit:4;stroke-dasharray:none;stroke-opacity:1"
       id="path993"
       cx="206.15257"
       cy="318.99307"
       rx="2.3562214"
       ry="2.4655883" />
    <ellipse
       ry="2.4655883"
       rx="2.3562214"
       cy="306.45587"
       cx="210.29802"
       id="path993-5"
       style="fill:none;fill-opacity:1;stroke:#000000;stroke-width:0.829827;stroke-linejoin:round;stroke-miterlimit:4;stroke-dasharray:none;stroke-opacity:1" />
    <ellipse
       ry="2.4655883"
       rx="2.3562214"
       cy="291.6311"
       cx="222.75299"
       id="path993-0"
       style="fill:none;fill-opacity:1;stroke:#000000;stroke-width:0.829827;stroke-linejoin:round;stroke-miterlimit:4;stroke-dasharray:none;stroke-opacity:1" />
    <ellipse
       style="fill:none;fill-opacity:1;stroke:#000000;stroke-width:0.829827;stroke-linejoin:round;stroke-miterlimit:4;stroke-dasharray:none;stroke-opacity:1"
       id="path993-0-9"
       cx="216.31554"
       cy="295.21237"
       rx="2.3562214"
       ry="2.4655883" />
    <path
       id="path2106-1-3"
       d="m 273.14304,270.91733 c -3.36749,0 -5.61249,3.22843 -8.98002,3.22843 -3.36747,0 -5.61253,-3.22843 -8.98003,-3.22843 -3.36751,0 -5.61249,3.22843 -8.98002,3.22843 -3.3675,0 -5.61253,-3.22843 -8.98002,-3.22843 -3.36751,0 -5.61251,3.22843 -8.98,3.22843 v 9.68532 c 3.36749,0 5.61249,-3.2284 8.98,-3.2284 3.36749,0 5.61252,3.2284 8.98002,3.2284 3.36753,0 5.61251,-3.2284 8.98002,-3.2284 3.3675,0 5.61256,3.2284 8.98003,3.2284 3.36753,0 5.61253,-3.2284 8.98002,-3.2284 3.36752,0 5.61247,3.2284 8.98002,3.2284 3.36749,0 5.61251,-3.2284 8.97999,-3.2284 3.36753,0 5.61251,3.2284 8.98004,3.2284 3.36752,0 5.61254,-3.2284 8.98004,-3.2284 v -9.68535 c -3.3675,0 -5.61252,3.22843 -8.98004,3.22843 -3.36753,0 -5.61251,-3.22843 -8.98004,-3.22843 -3.36748,0 -5.6125,3.22843 -8.97999,3.22843 -3.36755,0 -5.6125,-3.22843 -8.98002,-3.22843 z"
       style="stroke-width:1.07687" />
    <path
       id="path2106-1-8"
       d="m 341.68188,270.90564 c -3.14302,0 -5.2384,3.22846 -8.38142,3.22846 -3.14297,0 -5.23835,-3.22846 -8.38143,-3.22846 -3.14302,0 -5.23834,3.22846 -8.38137,3.22846 -3.14304,0 -5.2384,-3.22846 -8.38142,-3.22846 -3.14304,0 -5.23834,3.22846 -8.38142,3.22846 v 9.68532 c 3.14308,0 5.23838,-3.22843 8.38142,-3.22843 3.14302,0 5.23838,3.22843 8.38142,3.22843 3.14303,0 5.23835,-3.22843 8.38137,-3.22843 3.14308,0 5.23846,3.22843 8.38143,3.22843 3.14302,0 5.2384,-3.22843 8.38142,-3.22843 3.14303,0 5.23834,3.22843 8.38141,3.22843 3.143,0 5.23836,-3.22843 8.38139,-3.22843 3.14306,0 5.23836,3.22843 8.38143,3.22843 3.14303,0 5.23838,-3.22843 8.38141,-3.22843 v -9.68535 c -3.14303,0 -5.23838,3.22846 -8.38141,3.22846 -3.14307,0 -5.23837,-3.22846 -8.38143,-3.22846 -3.14303,0 -5.23839,3.22846 -8.38139,3.22846 -3.14307,0 -5.23838,-3.22846 -8.38141,-3.22846 z"
       style="stroke-width:1.04035" />
    <g
       transform="matrix(-0.16877466,-0.28869502,0.29232626,-0.16667811,220.8261,297.0745)"
       id="layer1-3"
       inkscape:label="Ebene 1">
      <path
         sodipodi:nodetypes="sssss"
         id="path833"
         d="m 50.025339,100.10705 c 0,-2.76 8.71077,-37.533801 56.375101,-37.533801 47.66432,0 116.32174,34.773801 116.32174,37.533801 0,2.76 -67.81493,36.83013 -115.47925,36.83013 -47.664333,0 -57.217591,-34.07013 -57.217591,-36.83013 z"
         style="fill:#000000;stroke:none;stroke-width:0.28408px;stroke-linecap:butt;stroke-linejoin:miter;stroke-opacity:1" />
      <path
         id="path839"
         d="m 57.175841,100.20937 c 152.322749,0 152.445939,0 152.445939,0"
         style="fill:#ffffff;stroke:#ffffff;stroke-width:1.5389;stroke-linecap:butt;stroke-linejoin:miter;stroke-miterlimit:4;stroke-dasharray:none;stroke-opacity:1" />
      <path
         sodipodi:nodetypes="cc"
         id="path844"
         d="m 115.37354,75.203972 c -14.79253,17.514707 -14.57708,33.987238 0,49.462468"
         style="fill:none;stroke:#000000;stroke-width:0.264583px;stroke-linecap:butt;stroke-linejoin:miter;stroke-opacity:1" />
      <path
         style="fill:none;stroke:#ffffff;stroke-width:1.5389;stroke-linecap:butt;stroke-linejoin:miter;stroke-miterlimit:4;stroke-dasharray:none;stroke-opacity:1"
         d="m 184.65523,90.920164 c -5.39319,6.385673 -5.31465,12.391386 0,18.033486"
         id="path848"
         sodipodi:nodetypes="cc" />
      <path
         style="fill:none;stroke:#ffffff;stroke-width:1.5389;stroke-linecap:butt;stroke-linejoin:miter;stroke-miterlimit:4;stroke-dasharray:none;stroke-opacity:1"
         d="m 160.27226,84.087538 c -9.46844,11.210858 -9.33053,21.754642 0,31.660062"
         id="path850"
         sodipodi:nodetypes="cc" />
      <path
         style="fill:none;stroke:#ffffff;stroke-width:1.5389;stroke-linecap:butt;stroke-linejoin:miter;stroke-miterlimit:4;stroke-dasharray:none;stroke-opacity:1"
         d="m 138.93416,78.28958 c -12.86496,15.232422 -12.67758,29.55847 0,43.01717"
         id="path854"
         sodipodi:nodetypes="cc" />
      <path
         style="fill:none;stroke:#ffffff;stroke-width:1.5389;stroke-linecap:butt;stroke-linejoin:miter;stroke-miterlimit:4;stroke-dasharray:none;stroke-opacity:1"
         d="m 115.37354,75.203972 c -14.79253,17.514707 -14.57708,33.987238 0,49.462468"
         id="path856"
         sodipodi:nodetypes="cc" />
      <path
         sodipodi:nodetypes="cc"
         id="path858"
         d="m 88.296338,76.268166 c -14.024554,16.605406 -13.820289,32.222744 0,46.894554"
         style="fill:none;stroke:#ffffff;stroke-width:1.5389;stroke-linecap:butt;stroke-linejoin:miter;stroke-miterlimit:4;stroke-dasharray:none;stroke-opacity:1" />
    </g>
    <g
       inkscape:label="Ebene 1"
       id="g955"
       transform="matrix(0,-0.62719799,0.62902173,0,206.99687,297.38329)">
      <path
         style="fill:#000000;stroke:none;stroke-width:0.28408px;stroke-linecap:butt;stroke-linejoin:miter;stroke-opacity:1"
         d="m 50.025339,100.10705 c 0,-2.76 8.71077,-37.533801 56.375101,-37.533801 47.66432,0 116.32174,34.773801 116.32174,37.533801 0,2.76 -67.81493,36.83013 -115.47925,36.83013 -47.664333,0 -57.217591,-34.07013 -57.217591,-36.83013 z"
         id="path939"
         sodipodi:nodetypes="sssss" />
      <path
         style="fill:#ffffff;stroke:#ffffff;stroke-width:1.68169;stroke-linecap:butt;stroke-linejoin:miter;stroke-miterlimit:4;stroke-dasharray:none;stroke-opacity:1"
         d="m 57.175841,100.20937 c 152.322749,0 152.445939,0 152.445939,0"
         id="path941" />
      <path
         style="fill:none;stroke:#000000;stroke-width:0.264583px;stroke-linecap:butt;stroke-linejoin:miter;stroke-opacity:1"
         d="m 115.37354,75.203972 c -14.79253,17.514707 -14.57708,33.987238 0,49.462468"
         id="path943"
         sodipodi:nodetypes="cc" />
      <path
         sodipodi:nodetypes="cc"
         id="path945"
         d="m 184.65523,90.920164 c -5.39319,6.385673 -5.31465,12.391386 0,18.033486"
         style="fill:none;stroke:#ffffff;stroke-width:1.68169;stroke-linecap:butt;stroke-linejoin:miter;stroke-miterlimit:4;stroke-dasharray:none;stroke-opacity:1" />
      <path
         sodipodi:nodetypes="cc"
         id="path947"
         d="m 160.27226,84.087538 c -9.46844,11.210858 -9.33053,21.754642 0,31.660062"
         style="fill:none;stroke:#ffffff;stroke-width:1.68169;stroke-linecap:butt;stroke-linejoin:miter;stroke-miterlimit:4;stroke-dasharray:none;stroke-opacity:1" />
      <path
         sodipodi:nodetypes="cc"
         id="path949"
         d="m 138.93416,78.28958 c -12.86496,15.232422 -12.67758,29.55847 0,43.01717"
         style="fill:none;stroke:#ffffff;stroke-width:1.68169;stroke-linecap:butt;stroke-linejoin:miter;stroke-miterlimit:4;stroke-dasharray:none;stroke-opacity:1" />
      <path
         sodipodi:nodetypes="cc"
         id="path951"
         d="m 115.37354,75.203972 c -14.79253,17.514707 -14.57708,33.987238 0,49.462468"
         style="fill:none;stroke:#ffffff;stroke-width:1.68169;stroke-linecap:butt;stroke-linejoin:miter;stroke-miterlimit:4;stroke-dasharray:none;stroke-opacity:1" />
      <path
         style="fill:none;stroke:#ffffff;stroke-width:1.68169;stroke-linecap:butt;stroke-linejoin:miter;stroke-miterlimit:4;stroke-dasharray:none;stroke-opacity:1"
         d="m 88.296338,76.268166 c -14.024554,16.605406 -13.820289,32.222744 0,46.894554"
         id="path953"
         sodipodi:nodetypes="cc" />
    </g>
    <g
       transform="matrix(0.16745515,-0.28920926,0.29004083,0.16697502,260.99639,263.40831)"
       id="g973"
       inkscape:label="Ebene 1">
      <path
         sodipodi:nodetypes="sssss"
         id="path957"
         d="m 50.025339,100.10705 c 0,-2.76 8.71077,-37.533801 56.375101,-37.533801 47.66432,0 116.32174,34.773801 116.32174,37.533801 0,2.76 -67.81493,36.83013 -115.47925,36.83013 -47.664333,0 -57.217591,-34.07013 -57.217591,-36.83013 z"
         style="fill:#000000;stroke:none;stroke-width:0.28408px;stroke-linecap:butt;stroke-linejoin:miter;stroke-opacity:1" />
      <path
         id="path959"
         d="m 57.175841,100.20937 c 152.322749,0 152.445939,0 152.445939,0"
         style="fill:#ffffff;stroke:#ffffff;stroke-width:1.54334;stroke-linecap:butt;stroke-linejoin:miter;stroke-miterlimit:4;stroke-dasharray:none;stroke-opacity:1" />
      <path
         sodipodi:nodetypes="cc"
         id="path961"
         d="m 115.37354,75.203972 c -14.79253,17.514707 -14.57708,33.987238 0,49.462468"
         style="fill:none;stroke:#000000;stroke-width:0.264583px;stroke-linecap:butt;stroke-linejoin:miter;stroke-opacity:1" />
      <path
         style="fill:none;stroke:#ffffff;stroke-width:1.54334;stroke-linecap:butt;stroke-linejoin:miter;stroke-miterlimit:4;stroke-dasharray:none;stroke-opacity:1"
         d="m 184.65523,90.920164 c -5.39319,6.385673 -5.31465,12.391386 0,18.033486"
         id="path963"
         sodipodi:nodetypes="cc" />
      <path
         style="fill:none;stroke:#ffffff;stroke-width:1.54334;stroke-linecap:butt;stroke-linejoin:miter;stroke-miterlimit:4;stroke-dasharray:none;stroke-opacity:1"
         d="m 160.27226,84.087538 c -9.46844,11.210858 -9.33053,21.754642 0,31.660062"
         id="path965"
         sodipodi:nodetypes="cc" />
      <path
         style="fill:none;stroke:#ffffff;stroke-width:1.54334;stroke-linecap:butt;stroke-linejoin:miter;stroke-miterlimit:4;stroke-dasharray:none;stroke-opacity:1"
         d="m 138.93416,78.28958 c -12.86496,15.232422 -12.67758,29.55847 0,43.01717"
         id="path967"
         sodipodi:nodetypes="cc" />
      <path
         style="fill:none;stroke:#ffffff;stroke-width:1.54334;stroke-linecap:butt;stroke-linejoin:miter;stroke-miterlimit:4;stroke-dasharray:none;stroke-opacity:1"
         d="m 115.37354,75.203972 c -14.79253,17.514707 -14.57708,33.987238 0,49.462468"
         id="path969"
         sodipodi:nodetypes="cc" />
      <path
         sodipodi:nodetypes="cc"
         id="path971"
         d="m 88.296338,76.268166 c -14.024554,16.605406 -13.820289,32.222744 0,46.894554"
         style="fill:none;stroke:#ffffff;stroke-width:1.54334;stroke-linecap:butt;stroke-linejoin:miter;stroke-miterlimit:4;stroke-dasharray:none;stroke-opacity:1" />
    </g>
    <text
       id="text973-0"
       y="362.15918"
       x="393.33969"
       style="font-style:normal;font-variant:normal;font-weight:600;font-stretch:normal;font-size:112.373px;line-height:1.25;font-family:FreeSans;-inkscape-font-specification:'FreeSans, Semi-Bold';font-variant-ligatures:normal;font-variant-caps:normal;font-variant-numeric:normal;font-variant-east-asian:normal;fill:#000000;fill-opacity:1;stroke:none;stroke-width:0.264962"
       xml:space="preserve"
       transform="scale(1.0014528,0.9985493)"><tspan
         style="font-style:normal;font-variant:normal;font-weight:600;font-stretch:normal;font-size:112.373px;font-family:FreeSans;-inkscape-font-specification:'FreeSans, Semi-Bold';font-variant-ligatures:normal;font-variant-caps:normal;font-variant-numeric:normal;font-variant-east-asian:normal;stroke-width:0.264962"
         y="362.15918"
         x="393.33969"
         id="tspan971-7"
         sodipodi:role="line">NICS</tspan></text>
  </g>
</svg>
